<svg width="222" height="44" viewBox="0 0 222 44" fill="none" xmlns="http://www.w3.org/2000/svg">
<g clip-path="url(#clip0_284_16619)">
<path d="M41.2524 21.9341C41.2524 32.6563 32.5613 41.3474 21.8391 41.3474C11.1169 41.3474 2.42578 32.6563 2.42578 21.9341C2.42578 11.2118 11.1169 2.52075 21.8391 2.52075C32.5613 2.52075 41.2524 11.2118 41.2524 21.9341Z" fill="white"/>
<path d="M41.2524 21.9368C41.251 32.6577 32.5599 41.3474 21.8391 41.3474C11.1182 41.3474 2.42578 32.6563 2.42578 21.9341C2.56534 21.9341 2.70351 21.9341 2.84168 21.9368C4.38646 25.4382 8.94893 32.4352 14.8614 32.4352C18.4594 32.4352 21.3541 29.9467 25.1083 27.3919C27.3149 28.1864 29.3695 28.7432 31.4836 28.7432C37.396 28.7432 39.7076 25.4354 41.251 21.9368H41.2524Z" fill="#052758"/>
<path d="M41.2524 21.9368C41.251 32.6577 32.5599 41.3474 21.8391 41.3474C11.1182 41.3474 2.42578 32.6563 2.42578 21.9341C2.56534 21.9341 2.70351 21.9341 2.84168 21.9368C4.38646 25.4382 8.94893 32.4352 14.8614 32.4352C18.4594 32.4352 21.3541 29.9467 25.1083 27.3919C27.3149 28.1864 29.3695 28.7432 31.4836 28.7432C37.396 28.7432 39.7076 25.4354 41.251 21.9368H41.2524Z" fill="url(#paint0_linear_284_16619)"/>
<path d="M41.2524 21.9313H41.251C39.7062 18.43 35.1438 11.4329 29.2314 11.4329C25.6333 11.4329 22.7386 13.9214 18.9844 16.4762C16.7778 15.6817 14.7232 15.1249 12.6091 15.1249C6.69671 15.1249 4.38508 18.4328 2.84168 21.9313C2.70351 21.9327 2.56534 21.9341 2.42578 21.9341C2.42578 11.2118 11.1169 2.52075 21.8391 2.52075C32.5613 2.52075 41.251 11.2105 41.2524 21.9313Z" fill="url(#paint1_linear_284_16619)"/>
<path d="M41.251 21.9312C30.7926 21.8442 24.4256 18.4355 18.9844 16.4762C22.7385 13.9214 25.6333 11.4329 29.2313 11.4329C35.1437 11.4329 39.7062 18.4299 41.251 21.9312Z" fill="url(#paint2_linear_284_16619)"/>
<path d="M25.1081 27.3918C21.354 29.9467 18.4593 32.4352 14.8612 32.4352C8.9488 32.4352 4.38633 25.4381 2.84155 21.9368C13.2999 22.0238 19.6669 25.4325 25.1081 27.3918Z" fill="url(#paint3_linear_284_16619)"/>
<path d="M41.2512 21.9368C39.7078 25.4353 37.3961 28.7432 31.4837 28.7432C29.3697 28.7432 27.315 28.1863 25.1084 27.3918C28.9924 24.7486 33.7953 22.0349 41.2512 21.9368Z" fill="url(#paint4_linear_284_16619)"/>
<path d="M18.9843 16.4761C15.1003 19.1193 10.2974 21.8331 2.84155 21.9312C4.38495 18.4326 6.69658 15.1248 12.609 15.1248C14.7231 15.1248 16.7777 15.6816 18.9843 16.4761Z" fill="url(#paint5_linear_284_16619)"/>
<path d="M41.2524 21.9342C41.2524 21.9342 41.2511 21.9355 41.2511 21.9369C33.7952 22.035 28.9923 24.7487 25.1083 27.392C19.667 25.4327 13.3 22.024 2.84171 21.9369C2.84171 21.9355 2.84033 21.9355 2.84033 21.9342C2.84033 21.9328 2.84171 21.9328 2.84171 21.9314C10.2975 21.8333 15.1004 19.1196 18.9845 16.4763C24.4257 18.4356 30.7927 21.8443 41.2511 21.9314C41.2511 21.9328 41.2524 21.9328 41.2524 21.9342Z" fill="white"/>
</g>
<rect x="1.32134" y="1.41534" width="41.0374" height="41.0374" rx="20.5187" stroke="white" stroke-width="1.38173"/>
<path d="M217.527 19.1437V13.6137C217.527 12.3998 218.511 11.4158 219.725 11.4158V11.4158C220.939 11.4158 221.923 12.3998 221.923 13.6137V28.5095C221.923 29.7234 220.939 30.7075 219.725 30.7075V30.7075C218.511 30.7075 217.527 29.7234 217.527 28.5095V23.0916H211.171V28.5095C211.171 29.7234 210.187 30.7075 208.973 30.7075V30.7075C207.759 30.7075 206.775 29.7234 206.775 28.5095V13.6137C206.775 12.3998 207.759 11.4158 208.973 11.4158V11.4158C210.187 11.4158 211.171 12.3998 211.171 13.6137V19.1437H217.527Z" fill="#01A1B8"/>
<path d="M189.428 13.3337C189.428 12.2745 190.287 11.4158 191.346 11.4158H202.098C203.157 11.4158 204.016 12.2745 204.016 13.3337V13.3337C204.016 14.393 203.157 15.2517 202.098 15.2517H198.92V28.5095C198.92 29.7234 197.936 30.7075 196.722 30.7075V30.7075C195.508 30.7075 194.524 29.7234 194.524 28.5095V15.2517H191.346C190.287 15.2517 189.428 14.393 189.428 13.3337V13.3337Z" fill="#01A1B8"/>
<path d="M181.11 11.4158C182.324 11.4158 183.308 12.3998 183.308 13.6137V26.8715H188.474C189.533 26.8715 190.392 27.7303 190.392 28.7895V28.7895C190.392 29.8488 189.533 30.7075 188.474 30.7075H180.921C179.812 30.7075 178.912 29.808 178.912 28.6985V13.6137C178.912 12.3998 179.896 11.4158 181.11 11.4158V11.4158Z" fill="#01A1B8"/>
<path d="M175.876 27.7952C176.397 29.2079 175.352 30.7075 173.846 30.7075V30.7075C172.909 30.7075 172.078 30.1039 171.788 29.2125L170.818 26.2276H164.042L163.096 29.1962C162.809 30.0963 161.973 30.7075 161.028 30.7075V30.7075C159.516 30.7075 158.468 29.2012 158.992 27.7836L164.22 13.6594C164.719 12.3109 166.005 11.4158 167.442 11.4158V11.4158C168.882 11.4158 170.169 12.3129 170.667 13.6635L175.876 27.7952ZM167.402 15.6157L165.246 22.4196H169.586L167.402 15.6157Z" fill="#01A1B8"/>
<path d="M148.528 23.1756V26.8715H154.841C155.901 26.8715 156.759 27.7303 156.759 28.7895V28.7895C156.759 29.8488 155.901 30.7075 154.841 30.7075H146.341C145.121 30.7075 144.132 29.7181 144.132 28.4976V13.5815C144.132 12.3854 145.101 11.4158 146.297 11.4158H154.589C155.649 11.4158 156.507 12.2745 156.507 13.3337V13.3337C156.507 14.393 155.649 15.2517 154.589 15.2517H148.528V19.2277H153.553C154.644 19.2277 155.527 20.1114 155.527 21.2016V21.2016C155.527 22.2918 154.644 23.1756 153.553 23.1756H148.528Z" fill="#01A1B8"/>
<path d="M135.278 19.1437V13.6137C135.278 12.3998 136.262 11.4158 137.476 11.4158V11.4158C138.69 11.4158 139.674 12.3998 139.674 13.6137V28.5095C139.674 29.7234 138.69 30.7075 137.476 30.7075V30.7075C136.262 30.7075 135.278 29.7234 135.278 28.5095V23.0916H128.922V28.5095C128.922 29.7234 127.938 30.7075 126.724 30.7075V30.7075C125.51 30.7075 124.526 29.7234 124.526 28.5095V13.6137C124.526 12.3998 125.51 11.4158 126.724 11.4158V11.4158C127.938 11.4158 128.922 12.3998 128.922 13.6137V19.1437H135.278Z" fill="#01A1B8"/>
<path d="M111.388 31.0435C105.872 31.0435 101.532 26.5076 101.532 21.0477C101.532 15.5878 105.872 11.0798 111.388 11.0798C116.82 11.0798 121.215 15.5878 121.215 21.0477C121.215 26.5076 116.82 31.0435 111.388 31.0435ZM111.36 26.8996C114.58 26.8996 116.792 24.2676 116.792 21.0477C116.792 17.8277 114.58 15.2238 111.36 15.2238C108.112 15.2238 105.956 17.8277 105.956 21.0477C105.956 24.2676 108.112 26.8996 111.36 26.8996Z" fill="white"/>
<path d="M91.216 23.1756V26.8715H97.5299C98.5892 26.8715 99.4479 27.7303 99.4479 28.7895V28.7895C99.4479 29.8488 98.5892 30.7075 97.5299 30.7075H89.0299C87.8095 30.7075 86.8201 29.7181 86.8201 28.4976V13.5815C86.8201 12.3854 87.7897 11.4158 88.9858 11.4158H97.2779C98.3372 11.4158 99.1959 12.2745 99.1959 13.3337V13.3337C99.1959 14.393 98.3372 15.2517 97.2779 15.2517H91.216V19.2277H96.2419C97.3321 19.2277 98.2159 20.1114 98.2159 21.2016V21.2016C98.2159 22.2918 97.3321 23.1756 96.2419 23.1756H91.216Z" fill="white"/>
<path d="M74.7722 11.4158C75.9861 11.4158 76.9702 12.3998 76.9702 13.6137V26.8715H82.1361C83.1953 26.8715 84.0541 27.7303 84.0541 28.7895V28.7895C84.0541 29.8488 83.1953 30.7075 82.1361 30.7075H74.5832C73.4737 30.7075 72.5742 29.808 72.5742 28.6985V13.6137C72.5742 12.3998 73.5583 11.4158 74.7722 11.4158V11.4158Z" fill="white"/>
<path d="M61.594 31.0435C56.1621 31.0435 51.7942 26.5076 51.7942 21.0197C51.7942 15.5878 56.1621 11.0798 61.594 11.0798C64.2452 11.0798 66.6391 12.1257 68.4002 13.8149C69.213 14.5945 68.9687 15.883 68.0446 16.5268V16.5268C67.0907 17.1915 65.8022 16.8736 64.8649 16.1856C64.0247 15.5688 63.0038 15.2238 61.79 15.2238C58.5421 15.2238 56.2181 17.8277 56.2181 21.0197C56.2181 24.2116 58.4581 26.8996 61.762 26.8996C62.9931 26.8996 64.0211 26.5543 64.8642 25.937C65.8023 25.2502 67.0907 24.9319 68.0446 25.5966V25.5966C68.9687 26.2404 69.213 27.5289 68.4002 28.3085C66.6391 29.9977 64.2452 31.0435 61.594 31.0435Z" fill="white"/>
<defs>
<linearGradient id="paint0_linear_284_16619" x1="21.8391" y1="21.9341" x2="21.8391" y2="41.3474" gradientUnits="userSpaceOnUse">
<stop offset="0.309344" stop-color="#052758"/>
<stop offset="1" stop-color="#031530"/>
</linearGradient>
<linearGradient id="paint1_linear_284_16619" x1="21.8391" y1="2.52075" x2="21.8391" y2="21.9341" gradientUnits="userSpaceOnUse">
<stop stop-color="#031530"/>
<stop offset="0.618204" stop-color="#052758"/>
</linearGradient>
<linearGradient id="paint2_linear_284_16619" x1="29.2549" y1="21.9312" x2="30.9805" y2="11.4329" gradientUnits="userSpaceOnUse">
<stop offset="0.321771" stop-color="#0098AE"/>
<stop offset="1" stop-color="#00DFFF"/>
</linearGradient>
<linearGradient id="paint3_linear_284_16619" x1="13.9748" y1="21.9368" x2="13.9748" y2="32.4352" gradientUnits="userSpaceOnUse">
<stop offset="0.476166" stop-color="#0098AE"/>
<stop offset="1" stop-color="#00DFFF"/>
</linearGradient>
<linearGradient id="paint4_linear_284_16619" x1="32.1823" y1="21.9368" x2="34.1772" y2="28.7432" gradientUnits="userSpaceOnUse">
<stop offset="0.40302" stop-color="#B3005E"/>
<stop offset="1" stop-color="#FF0087"/>
</linearGradient>
<linearGradient id="paint5_linear_284_16619" x1="11.1797" y1="21.9312" x2="10.6461" y2="15.1248" gradientUnits="userSpaceOnUse">
<stop offset="0.385" stop-color="#B3005E"/>
<stop offset="1" stop-color="#FF0087"/>
</linearGradient>
<clipPath id="clip0_284_16619">
<rect x="2.01221" y="2.1062" width="39.6557" height="39.6557" rx="19.8278" fill="white"/>
</clipPath>
</defs>
</svg>
